<svg id="Layer_1" data-name="Layer 1" xmlns="http://www.w3.org/2000/svg" viewBox="0 0 500 500"><defs><style>.cls-1{fill:#063962;}.cls-2{fill:#095591;}.cls-3{fill:#d1d526;}.cls-4{fill:#0c5791;}.cls-5{fill:#0c5790;}.cls-6{fill:#0b5690;}.cls-7{fill:#0c5690;}.cls-8{fill:#d0d527;}.cls-9{fill:#cfd427;}.cls-10{fill:#0d5790;}</style></defs><title>Invoice-Payment</title><path class="cls-1" d="M214.81,500H0V0H500V237.5a13,13,0,0,1-2.22-1.53c-2.2-2.26-4.32-4.6-6.46-6.93q-10.45-11.4-20.89-22.82-16.35-17.91-32.67-35.84c-7.2-7.91-14.36-15.86-21.59-23.75a36.19,36.19,0,0,0-3.47-2.92l.11-.14.14.09-.7-.61a13.36,13.36,0,0,1-1.1-1.16c-5-6.61-9.75-13.42-15-19.78a167,167,0,0,0-22.36-21.64,195,195,0,0,0-198-29.82,188.55,188.55,0,0,0-59.33,38.4A212.19,212.19,0,0,0,95.6,132.2,187.84,187.84,0,0,0,67,185a191.91,191.91,0,0,0-10.82,53.53c-2.1,38.07,6,73.82,24.64,107.15a202.25,202.25,0,0,0,29.79,40c3.11,3.28,6.5,6.31,9.76,9.45l.8,1H121V396l.66.65.08-.1a12.48,12.48,0,0,0,1.24,2.1q9.94,11,19.95,21.87,20.38,22.39,40.77,44.81c9,9.91,18.15,19.75,27.19,29.66C212.28,496.54,213.5,498.32,214.81,500Z"/><path class="cls-2" d="M214.81,500c-1.31-1.68-2.53-3.46-4-5-9-9.91-18.15-19.75-27.19-29.66q-20.42-22.38-40.77-44.81-10-10.94-19.95-21.87a12.48,12.48,0,0,1-1.24-2.1,16.56,16.56,0,0,1,1.94,1.2c2.73,2.24,5.33,4.66,8.15,6.76a199.9,199.9,0,0,0,53,28.64,190.24,190.24,0,0,0,51.67,10.71c42.14,2.66,81.21-7,117.1-29.36a185.8,185.8,0,0,0,40-33.55,203.71,203.71,0,0,0,19.51-25.34,189.11,189.11,0,0,0,22.08-46.88,194.7,194.7,0,0,0,7.28-83.9A192.68,192.68,0,0,0,419,154.66c-2.1-3.66-4.22-7.3-6.34-10.95a36.19,36.19,0,0,1,3.47,2.92c7.23,7.89,14.39,15.84,21.59,23.75q16.32,17.93,32.67,35.84,10.43,11.42,20.89,22.82c2.14,2.33,4.26,4.67,6.46,6.93A13,13,0,0,0,500,237.5V500Z"/><path class="cls-3" d="M412.7,143.71c2.12,3.65,4.24,7.29,6.34,10.95a192.68,192.68,0,0,1,23.39,70.15,194.7,194.7,0,0,1-7.28,83.9,189.11,189.11,0,0,1-22.08,46.88,203.71,203.71,0,0,1-19.51,25.34,185.8,185.8,0,0,1-40,33.55c-35.89,22.35-75,32-117.1,29.36a190.24,190.24,0,0,1-51.67-10.71,199.9,199.9,0,0,1-53-28.64c-2.82-2.1-5.42-4.52-8.15-6.76a16.56,16.56,0,0,0-1.94-1.2l-.08.1L121,396v.22h.21l-.8-1c-3.26-3.14-6.65-6.17-9.76-9.45a202.25,202.25,0,0,1-29.79-40c-18.67-33.33-26.74-69.08-24.64-107.15A191.91,191.91,0,0,1,67,185,187.84,187.84,0,0,1,95.6,132.2a212.19,212.19,0,0,1,20.78-23.15,188.55,188.55,0,0,1,59.33-38.4,194.09,194.09,0,0,1,92-13.81,193.55,193.55,0,0,1,106.06,43.63,167,167,0,0,1,22.36,21.64c5.29,6.36,10,13.17,15,19.78a13.36,13.36,0,0,0,1.1,1.16l.7.61-.14-.09ZM216.91,341.27h2.85c17.9,0,35.8,0,53.69,0A17.94,17.94,0,0,0,291.61,323q0-30.09,0-60.17a17.74,17.74,0,0,0-17.9-17.92H115.42a18.13,18.13,0,0,0-18.16,18.27c0,19.59.06,39.19,0,58.78a19,19,0,0,0,19.4,19.4c23.84-.26,47.68-.1,71.51,0a9.18,9.18,0,0,1,4.13,1.06c5.51,2.94,10.94,6,16.4,9.07l16,8.9C222,353.76,219.51,347.68,216.91,341.27ZM278,143.08c1-.05,1.79-.12,2.54-.12H350c.93,0,1.86,0,2.78.07a8.35,8.35,0,0,1,7.84,7.75c.13,1.38.09,2.77.09,4.16,0,44.75-.09,89.49.09,134.23,0,8.44-3.3,12.12-11.89,11.89-11.64-.32-23.29-.08-34.94-.07-4.52,0-7.75,2.86-7.76,6.83a6.17,6.17,0,0,0,6.46,6.37q19.56.12,39.11.1a21.71,21.71,0,0,0,13-4.11c6.53-4.74,9.26-11.3,9.26-19.2q0-20.72,0-41.43,0-48.26,0-96.51c0-6.62-1.88-12.46-6.71-17.16s-10.61-6.27-17.13-6.27q-40.5,0-81-.08a9.36,9.36,0,0,0-7.46,3.42c-14.16,15.8-28.4,31.53-42.51,47.36a8.35,8.35,0,0,0-2.17,4.87c-.26,13-.33,26.07-.32,39.1a6.85,6.85,0,0,0,7.22,7.1c3.78-.23,6.38-3.4,6.33-7.46-.11-8.95-.13-17.9-.18-26.84a10.68,10.68,0,0,1,.21-1.31h2.58c7.1,0,14.2,0,21.29,0,14.71,0,23.77-9.14,23.81-23.9,0-8.72,0-17.43,0-26.15ZM414.76,250.32a169.26,169.26,0,0,0-6.07-44.67,12.54,12.54,0,0,0-1.9-3.93,7.91,7.91,0,0,0-9.93-2.39,7.36,7.36,0,0,0-4,9.09,145,145,0,0,1,4.36,63c-5.92,39.32-24.48,71.62-55.85,95.94-35.91,27.84-76.71,37.11-121.27,28.4-25.29-4.94-47.95-15.73-67.1-33.33a7.93,7.93,0,0,0-10.23-.32,7.77,7.77,0,0,0-2,10.17,21.08,21.08,0,0,0,4.53,4.81c27,22,57.76,34.62,92.52,37.12,37,2.66,71.49-5.69,102.26-26.41C388.69,355,413,308.66,414.76,250.32ZM307.17,101.14a7.16,7.16,0,0,0-3.33-6.31,26.8,26.8,0,0,0-6.15-2.46c-30.16-9-60.52-9.58-90.86-1.27-38.36,10.49-68.94,32.31-91.92,64.73-14.48,20.42-23.23,43.23-27.71,67.76a8.11,8.11,0,0,0,6.63,9.14,7.64,7.64,0,0,0,9-6c.72-3.23,1.27-6.51,2.05-9.73,10.12-42.09,33.81-74.31,71.18-96.08,29.4-17.12,61.3-23,95-18.13,9,1.29,17.72,4,26.56,6.06A7.73,7.73,0,0,0,307.17,101.14ZM324,164.29c0-1.47.12-2.94,0-4.38a5.71,5.71,0,0,0-4.87-5.13,5.63,5.63,0,0,0-5.71,4.12,10.51,10.51,0,0,0-.19,3.67c.2,2-.39,2.91-2.53,3.48-6.69,1.78-12.33,5.29-14.73,12.12-1,2.79-.63,6.05-.89,9.1a9.8,9.8,0,0,0,2.6,7.68,32.64,32.64,0,0,0,7.37,6.18c3.6,2,7.66,3.21,11.43,5a32.64,32.64,0,0,1,7.55,4.31,5.79,5.79,0,0,1-1.75,10,16.8,16.8,0,0,1-7.18,1.28,79,79,0,0,1-11.58-2c-4.25-.94-7.89,1.39-8.39,5.64a6.55,6.55,0,0,0,5,7.09c4,1,8.1,1.71,12.42,2.6,0,1.43-.07,3,0,4.64a5.47,5.47,0,1,0,10.93-.06,22.32,22.32,0,0,0,0-3.47c-.18-1.66.35-2.47,2.1-2.82a27.45,27.45,0,0,0,5.46-1.85,20,20,0,0,0,12.27-15.75A17,17,0,0,0,335.25,198c-4-2.55-8.56-4.17-12.86-6.24-2.77-1.34-5.58-2.61-8.23-4.15a4.91,4.91,0,0,1-2.68-5.23,5.6,5.6,0,0,1,4.14-4.54,10.94,10.94,0,0,1,3.83-.74c3.37.19,6.73.64,10.09,1a19,19,0,0,0,3.87.42,6.35,6.35,0,0,0,.71-12.41C330.92,165.34,327.63,164.94,324,164.29Z"/><path class="cls-2" d="M120.36,395.16l.8,1Z"/><path class="cls-2" d="M413,143.66l-.7-.61Z"/><path class="cls-2" d="M121,396l.66.65Z"/><path class="cls-4" d="M216.91,341.27c2.6,6.41,5.08,12.49,7.76,19.08l-16-8.9c-5.46-3-10.89-6.13-16.4-9.07a9.18,9.18,0,0,0-4.13-1.06c-23.83-.06-47.67-.22-71.51,0A19,19,0,0,1,97.24,322c.08-19.59,0-39.19,0-58.78a18.13,18.13,0,0,1,18.16-18.27H273.71a17.74,17.74,0,0,1,17.9,17.92q0,30.09,0,60.17a17.94,17.94,0,0,1-18.16,18.26c-17.89.05-35.79,0-53.69,0ZM149,295.75c2,5.15,3.67,10.08,5.71,14.86a58.07,58.07,0,0,0,12.23,18.65c2,2,4.46,3.57,7.47,2.18s3.42-4.06,3.55-7c.35-7.92.41-15.88,1.31-23.74,1.41-12.41,3.28-24.78,8.83-36.23a6,6,0,0,0-2.08-7.43c-3.7-2.88-8.43-2-10.28,2.68a147.14,147.14,0,0,0-6.57,19.9c-1.73,7.14-2.53,14.5-3.82,22.21-.41-1-.77-1.76-1-2.52q-2.81-10-5.55-20c-.65-2.37-.94-4.88-1.88-7.13-1.55-3.73-5.79-4.55-8.78-1.82a13.18,13.18,0,0,0-2.6,3.5c-2.71,5-5.31,10.1-8,15.16-3,5.65-5.94,11.29-9.17,17.44-.43-1.63-.78-2.7-1-3.8-2.36-12.66-4.73-25.31-7-38-.8-4.44-3.24-6.41-7.56-5.77a6.32,6.32,0,0,0-5.47,7.52c2.73,17.45,5.59,34.88,10.38,51.91A59.6,59.6,0,0,0,122,329.28c1.62,3.13,4.27,3.49,6.91,1.12a26.15,26.15,0,0,0,5.31-6.33c3.17-5.55,6-11.31,8.93-17C145.05,303.36,147,299.63,149,295.75Zm83.76-6.31c-.41-3-.58-6-1.27-8.89-2.69-11.38-12-17.92-22.78-16.24-4.8.74-8.52,3.3-11.8,6.76-9.16,9.66-12.44,28.12-7.06,40.33a19.48,19.48,0,0,0,33,4.91C229.36,308.6,232.34,299.55,232.72,289.44Zm29.09-25.33a18.64,18.64,0,0,0-11.47,3.35,28.2,28.2,0,0,0-9.11,11.17c-4.93,9.93-6.36,20.31-2.72,30.92,5.21,15.18,23.27,18.8,33.67,6.62,9.1-10.66,11.81-23.24,8.33-36.82C278,269.65,270.59,264.11,261.81,264.11Z"/><path class="cls-5" d="M278,143.08v2.63c0,8.72,0,17.43,0,26.15,0,14.76-9.1,23.86-23.81,23.9-7.09,0-14.19,0-21.29,0h-2.58a10.68,10.68,0,0,0-.21,1.31c.05,8.94.07,17.89.18,26.84.05,4.06-2.55,7.23-6.33,7.46a6.85,6.85,0,0,1-7.22-7.1c0-13,.06-26.07.32-39.1a8.35,8.35,0,0,1,2.17-4.87c14.11-15.83,28.35-31.56,42.51-47.36a9.36,9.36,0,0,1,7.46-3.42q40.5.14,81,.08c6.52,0,12.36,1.63,17.13,6.27S374,146.42,374,153q0,48.26,0,96.51,0,20.71,0,41.43c0,7.9-2.73,14.46-9.26,19.2a21.71,21.71,0,0,1-13,4.11q-19.55,0-39.11-.1a6.17,6.17,0,0,1-6.46-6.37c0-4,3.24-6.83,7.76-6.83,11.65,0,23.3-.25,34.94.07,8.59.23,11.92-3.45,11.89-11.89-.18-44.74-.08-89.48-.09-134.23,0-1.39,0-2.78-.09-4.16a8.35,8.35,0,0,0-7.84-7.75c-.92-.07-1.85-.07-2.78-.07H280.53C279.78,143,279,143,278,143.08Zm-42.92,38.74c1.27.14,1.86.26,2.44.26,6,0,12,0,18,0,5.41-.06,8.73-3.45,8.76-8.91,0-7.17,0-14.35,0-21.52a20.42,20.42,0,0,0-.25-2Z"/><path class="cls-6" d="M414.76,250.32C413,308.66,388.69,355,340.07,387.76c-30.77,20.72-65.25,29.07-102.26,26.41-34.76-2.5-65.56-15.09-92.52-37.12a21.08,21.08,0,0,1-4.53-4.81,7.77,7.77,0,0,1,2-10.17,7.93,7.93,0,0,1,10.23.32c19.15,17.6,41.81,28.39,67.1,33.33,44.56,8.71,85.36-.56,121.27-28.4,31.37-24.32,49.93-56.62,55.85-95.94a145,145,0,0,0-4.36-63,7.36,7.36,0,0,1,4-9.09,7.91,7.91,0,0,1,9.93,2.39,12.54,12.54,0,0,1,1.9,3.93A169.26,169.26,0,0,1,414.76,250.32Z"/><path class="cls-6" d="M307.17,101.14a7.73,7.73,0,0,1-9.6,7.71c-8.84-2.07-17.6-4.77-26.56-6.06-33.66-4.84-65.56,1-95,18.13-37.37,21.77-61.06,54-71.18,96.08-.78,3.22-1.33,6.5-2.05,9.73a7.64,7.64,0,0,1-9,6,8.11,8.11,0,0,1-6.63-9.14c4.48-24.53,13.23-47.34,27.71-67.76,23-32.42,53.56-54.24,91.92-64.73,30.34-8.31,60.7-7.72,90.86,1.27a26.8,26.8,0,0,1,6.15,2.46A7.16,7.16,0,0,1,307.17,101.14Z"/><path class="cls-7" d="M324,164.29c3.65.65,6.94,1.05,10.14,1.85a6.35,6.35,0,0,1-.71,12.41,19,19,0,0,1-3.87-.42c-3.36-.36-6.72-.81-10.09-1a10.94,10.94,0,0,0-3.83.74,5.6,5.6,0,0,0-4.14,4.54,4.91,4.91,0,0,0,2.68,5.23c2.65,1.54,5.46,2.81,8.23,4.15,4.3,2.07,8.87,3.69,12.86,6.24a17,17,0,0,1,8.06,17.68A20,20,0,0,1,331,231.46a27.45,27.45,0,0,1-5.46,1.85c-1.75.35-2.28,1.16-2.1,2.82a22.32,22.32,0,0,1,0,3.47,5.47,5.47,0,1,1-10.93.06c-.09-1.6,0-3.21,0-4.64-4.32-.89-8.41-1.59-12.42-2.6a6.55,6.55,0,0,1-5-7.09c.5-4.25,4.14-6.58,8.39-5.64a79,79,0,0,0,11.58,2,16.8,16.8,0,0,0,7.18-1.28,5.79,5.79,0,0,0,1.75-10,32.64,32.64,0,0,0-7.55-4.31c-3.77-1.76-7.83-2.94-11.43-5a32.64,32.64,0,0,1-7.37-6.18,9.8,9.8,0,0,1-2.6-7.68c.26-3.05-.1-6.31.89-9.1,2.4-6.83,8-10.34,14.73-12.12,2.14-.57,2.73-1.47,2.53-3.48a10.51,10.51,0,0,1,.19-3.67,5.63,5.63,0,0,1,5.71-4.12,5.71,5.71,0,0,1,4.87,5.13C324.1,161.35,324,162.82,324,164.29Z"/><path class="cls-8" d="M149,295.75c-2,3.88-3.91,7.61-5.84,11.33-3,5.68-5.76,11.44-8.93,17a26.15,26.15,0,0,1-5.31,6.33c-2.64,2.37-5.29,2-6.91-1.12a59.6,59.6,0,0,1-4.23-10.95c-4.79-17-7.65-34.46-10.38-51.91a6.32,6.32,0,0,1,5.47-7.52c4.32-.64,6.76,1.33,7.56,5.77,2.28,12.66,4.65,25.31,7,38,.21,1.1.56,2.17,1,3.8,3.23-6.15,6.21-11.79,9.17-17.44,2.65-5.06,5.25-10.14,8-15.16a13.18,13.18,0,0,1,2.6-3.5c3-2.73,7.23-1.91,8.78,1.82.94,2.25,1.23,4.76,1.88,7.13q2.75,10,5.55,20c.21.76.57,1.48,1,2.52,1.29-7.71,2.09-15.07,3.82-22.21a147.14,147.14,0,0,1,6.57-19.9c1.85-4.64,6.58-5.56,10.28-2.68a6,6,0,0,1,2.08,7.43c-5.55,11.45-7.42,23.82-8.83,36.23-.9,7.86-1,15.82-1.31,23.74-.13,2.92-.64,5.64-3.55,7s-5.43-.15-7.47-2.18a58.07,58.07,0,0,1-12.23-18.65C152.63,305.83,150.92,300.9,149,295.75Z"/><path class="cls-9" d="M232.72,289.44c-.38,10.11-3.36,19.16-9.94,26.87a19.48,19.48,0,0,1-33-4.91c-5.38-12.21-2.1-30.67,7.06-40.33,3.28-3.46,7-6,11.8-6.76,10.82-1.68,20.09,4.86,22.78,16.24C232.14,283.45,232.31,286.47,232.72,289.44Zm-32.86,7.14a63.47,63.47,0,0,0,1.82,8.05c2.18,6,6.59,6.86,11.21,2.45,6.27-6,8.34-18.22,4.4-26-2.26-4.46-6.4-5.21-10-1.63C202.64,284.11,200.41,289.89,199.86,296.58Z"/><path class="cls-9" d="M261.81,264.11c8.78,0,16.21,5.54,18.7,15.24,3.48,13.58.77,26.16-8.33,36.82-10.4,12.18-28.46,8.56-33.67-6.62-3.64-10.61-2.21-21,2.72-30.92a28.2,28.2,0,0,1,9.11-11.17A18.64,18.64,0,0,1,261.81,264.11ZM269,289a52,52,0,0,0-2-7.46c-2.1-5.15-6.65-6-10.39-1.85-6.48,7.18-8.69,15.51-5.42,24.84,2.09,6,6.58,7,11.19,2.57C267.12,302.54,268.38,296.59,269,289Z"/><path class="cls-9" d="M235.07,181.82l29-32.22a20.42,20.42,0,0,1,.25,2c0,7.17,0,14.35,0,21.52,0,5.46-3.35,8.85-8.76,8.91-6,.06-12,0-18,0C236.93,182.08,236.34,182,235.07,181.82Z"/><path class="cls-10" d="M199.86,296.58c.55-6.69,2.78-12.47,7.46-17.16,3.57-3.58,7.71-2.83,10,1.63,3.94,7.81,1.87,20-4.4,26-4.62,4.41-9,3.53-11.21-2.45A63.47,63.47,0,0,1,199.86,296.58Z"/><path class="cls-10" d="M269,289c-.57,7.57-1.83,13.52-6.65,18.1-4.61,4.39-9.1,3.44-11.19-2.57-3.27-9.33-1.06-17.66,5.42-24.84,3.74-4.15,8.29-3.3,10.39,1.85A52,52,0,0,1,269,289Z"/></svg>